<svg id="svg" version="1.1" xmlns="http://www.w3.org/2000/svg" xmlns:xlink="http://www.w3.org/1999/xlink" width="400" height="400" viewBox="0, 0, 400,400"><g id="svgg"><path id="path0" d="M67.361 33.793 C 51.372 36.722,39.094 47.658,34.913 62.695 C 33.145 69.053,33.203 64.393,33.203 200.185 C 33.203 327.159,33.233 330.390,34.440 335.352 C 34.649 336.211,34.961 337.529,35.134 338.281 C 38.199 351.667,52.295 363.816,67.578 366.242 C 72.835 367.077,326.973 367.046,332.167 366.211 C 351.238 363.142,363.514 350.226,366.393 330.198 C 367.083 325.402,366.917 73.049,366.221 68.359 C 363.428 49.533,350.660 36.870,331.205 33.633 C 327.151 32.959,71.068 33.113,67.361 33.793 M219.922 90.948 C 229.824 92.357,234.757 93.616,241.692 96.502 C 260.214 104.210,271.533 117.572,274.603 135.352 C 278.075 155.455,273.718 171.336,261.366 183.606 C 259.304 185.654,256.167 188.289,254.395 189.461 C 250.637 191.946,250.689 191.838,252.832 192.722 C 267.716 198.859,277.692 208.027,283.068 220.508 C 284.215 223.171,285.938 228.686,285.937 229.695 C 285.937 230.149,286.094 230.816,286.286 231.178 C 287.592 233.643,287.923 251.865,286.770 257.829 C 284.222 271.015,279.958 279.368,271.318 288.097 C 266.877 292.584,265.779 293.510,261.230 296.608 C 255.574 300.460,245.692 304.918,239.746 306.300 C 238.940 306.487,237.534 306.820,236.621 307.039 C 224.959 309.836,221.126 310.029,175.918 310.103 C 128.275 310.180,127.814 310.145,123.935 306.143 C 121.735 303.874,120.880 302.176,120.337 299.001 C 119.646 294.964,119.908 99.076,120.605 98.379 C 120.874 98.110,121.094 97.650,121.094 97.356 C 121.094 95.441,124.687 92.066,127.906 90.958 C 130.265 90.146,214.220 90.137,219.922 90.948 M166.786 129.358 C 166.780 129.647,166.780 140.518,166.787 153.516 L 166.799 177.148 185.255 177.273 C 208.088 177.428,210.909 177.163,217.761 174.225 C 226.118 170.641,230.573 159.561,228.343 147.908 C 226.430 137.908,221.964 132.929,212.305 130.024 C 208.817 128.976,166.807 128.361,166.786 129.358 M166.757 214.233 C 166.455 214.534,166.713 270.251,167.018 270.745 C 167.370 271.314,211.414 270.940,214.648 270.341 C 231.879 267.146,239.070 259.083,239.059 242.969 C 239.049 227.447,232.068 218.355,217.578 214.991 C 214.706 214.324,167.372 213.618,166.757 214.233 " stroke="none" fill="#f3c34c" fill-rule="evenodd"></path><path id="path1" d="M129.883 91.030 C 129.238 91.215,128.261 91.459,127.711 91.571 C 124.980 92.127,122.061 95.424,120.931 99.230 C 120.072 102.124,120.003 295.676,120.860 299.219 C 122.301 305.178,125.363 308.159,130.920 309.016 C 133.609 309.431,219.820 309.260,223.242 308.833 C 228.908 308.126,234.364 307.114,238.672 305.971 C 239.854 305.658,241.348 305.265,241.992 305.098 C 258.940 300.711,278.934 283.623,282.921 270.117 C 283.048 269.688,283.448 268.545,283.811 267.578 C 287.125 258.749,288.118 242.269,285.942 232.227 C 285.476 230.078,284.999 227.793,284.882 227.148 C 284.764 226.504,284.534 225.801,284.371 225.586 C 284.208 225.371,283.944 224.586,283.784 223.841 C 283.625 223.096,283.356 222.217,283.187 221.888 C 283.018 221.559,282.312 220.092,281.618 218.629 C 276.352 207.538,266.526 198.850,253.027 193.350 C 250.709 192.405,250.020 191.258,251.465 190.751 C 252.719 190.312,259.402 185.129,261.612 182.882 C 268.716 175.661,273.479 165.954,274.586 156.445 C 275.638 147.404,275.534 142.289,274.166 135.742 C 272.534 127.938,272.034 126.406,269.538 121.591 C 266.092 114.943,262.830 110.896,257.031 106.076 C 254.478 103.953,249.920 100.781,249.424 100.781 C 249.330 100.781,248.355 100.252,247.258 99.605 C 245.290 98.444,237.239 95.099,234.961 94.495 C 234.316 94.324,233.086 93.984,232.227 93.739 C 229.268 92.896,224.641 92.126,217.969 91.365 C 213.413 90.845,131.606 90.534,129.883 91.030 M208.594 128.797 C 221.743 130.639,228.493 138.304,229.157 152.148 C 229.726 164.019,225.238 172.192,216.406 175.368 C 215.654 175.639,214.688 176.017,214.258 176.209 C 211.268 177.545,207.862 177.734,186.889 177.734 L 166.016 177.734 166.016 153.190 C 166.016 139.691,166.142 128.520,166.296 128.366 C 166.691 127.970,205.516 128.366,208.594 128.797 M215.234 213.942 C 215.986 214.164,217.568 214.561,218.750 214.824 C 227.052 216.674,233.999 221.940,236.809 228.516 C 239.110 233.898,239.453 235.750,239.453 242.796 C 239.453 257.353,233.620 265.731,220.898 269.449 C 214.582 271.295,214.683 271.289,189.844 271.289 L 166.211 271.289 166.111 242.603 C 166.031 219.919,166.113 213.848,166.501 213.588 C 167.215 213.110,213.554 213.447,215.234 213.942 " stroke="none" fill="#646b72" fill-rule="evenodd"></path><path id="path2" d="M135.808 32.715 C 171.509 32.770,230.044 32.770,265.886 32.715 C 301.729 32.660,272.520 32.615,200.977 32.615 C 129.434 32.615,100.108 32.660,135.808 32.715 M332.454 33.343 C 332.885 33.715,336.328 33.931,336.328 33.586 C 336.328 33.376,335.420 33.203,334.310 33.203 C 333.200 33.203,332.365 33.266,332.454 33.343 M337.305 34.375 C 338.390 34.841,339.155 34.841,338.867 34.375 C 338.734 34.160,338.153 33.997,337.575 34.012 C 336.636 34.036,336.607 34.075,337.305 34.375 M339.844 35.156 C 340.601 35.646,341.016 35.646,341.016 35.156 C 341.016 34.941,340.620 34.768,340.137 34.772 C 339.426 34.776,339.370 34.850,339.844 35.156 M344.630 37.245 C 356.390 43.148,364.082 53.620,366.583 67.133 C 367.496 72.065,367.504 327.353,366.591 332.664 C 363.703 349.477,352.826 361.237,335.649 366.119 L 332.617 366.980 200.781 367.101 C 56.963 367.232,68.692 367.395,61.133 365.160 C 50.081 361.892,39.489 351.834,35.501 340.820 C 34.946 339.287,34.791 339.093,34.780 339.918 C 34.772 340.496,34.941 341.078,35.156 341.211 C 35.371 341.344,35.547 341.881,35.547 342.406 C 35.547 342.930,35.723 343.359,35.938 343.359 C 36.152 343.359,36.328 343.711,36.328 344.141 C 36.328 344.570,36.504 344.922,36.719 344.922 C 36.934 344.922,37.109 345.273,37.109 345.703 C 37.109 346.133,37.285 346.484,37.500 346.484 C 37.715 346.484,37.891 346.836,37.891 347.266 C 37.891 347.695,38.066 348.047,38.281 348.047 C 38.496 348.047,38.672 348.328,38.672 348.671 C 38.672 349.015,39.199 349.789,39.844 350.391 C 40.488 350.993,41.016 351.681,41.016 351.920 C 41.016 352.529,48.317 359.766,48.932 359.766 C 49.210 359.766,49.690 360.117,50.000 360.547 C 50.310 360.977,50.811 361.328,51.115 361.328 C 51.418 361.328,51.951 361.636,52.299 362.012 C 53.018 362.789,54.939 364.005,55.957 364.327 C 56.333 364.447,56.641 364.700,56.641 364.889 C 56.641 365.079,57.168 365.234,57.813 365.234 C 58.457 365.234,58.984 365.410,58.984 365.625 C 58.984 365.840,59.589 366.016,60.329 366.016 C 61.068 366.016,61.781 366.191,61.914 366.406 C 62.047 366.621,62.848 366.797,63.695 366.797 C 64.542 366.797,65.234 366.973,65.234 367.188 C 65.234 367.402,65.839 367.578,66.579 367.578 C 67.318 367.578,68.031 367.754,68.164 367.969 C 68.499 368.510,331.892 368.510,332.227 367.969 C 332.359 367.754,333.337 367.578,334.398 367.578 C 335.460 367.578,336.328 367.402,336.328 367.188 C 336.328 366.973,337.031 366.797,337.891 366.797 C 338.750 366.797,339.453 366.621,339.453 366.406 C 339.453 366.191,339.980 366.016,340.625 366.016 C 341.270 366.016,341.797 365.840,341.797 365.625 C 341.797 365.410,342.148 365.234,342.578 365.234 C 343.008 365.234,343.359 365.059,343.359 364.844 C 343.359 364.629,343.711 364.453,344.141 364.453 C 344.570 364.453,344.922 364.277,344.922 364.063 C 344.922 363.848,345.273 363.672,345.703 363.672 C 346.133 363.672,346.484 363.496,346.484 363.281 C 346.484 363.066,346.836 362.891,347.266 362.891 C 347.695 362.891,348.047 362.715,348.047 362.500 C 348.047 362.285,348.312 362.109,348.636 362.109 C 348.961 362.109,349.778 361.582,350.452 360.937 C 351.127 360.293,351.833 359.766,352.021 359.766 C 352.210 359.766,353.135 359.019,354.076 358.105 C 355.018 357.192,356.200 356.078,356.703 355.630 C 358.116 354.369,360.547 351.422,360.547 350.969 C 360.547 350.746,360.898 350.310,361.328 350.000 C 361.758 349.690,362.109 349.124,362.109 348.742 C 362.109 348.360,362.285 348.047,362.500 348.047 C 362.715 348.047,362.891 347.776,362.891 347.445 C 362.891 347.113,363.242 346.465,363.672 346.004 C 364.102 345.543,364.453 344.857,364.453 344.481 C 364.453 344.104,364.629 343.687,364.844 343.555 C 365.059 343.422,365.234 342.972,365.234 342.555 C 365.234 342.138,365.410 341.797,365.625 341.797 C 365.840 341.797,366.016 341.270,366.016 340.625 C 366.016 339.980,366.191 339.453,366.406 339.453 C 366.621 339.453,366.797 338.750,366.797 337.891 C 366.797 337.031,366.973 336.328,367.188 336.328 C 367.404 336.328,367.578 335.294,367.578 334.007 C 367.578 332.731,367.754 331.578,367.969 331.445 C 368.228 331.285,368.359 287.113,368.359 200.195 C 368.359 113.278,368.228 69.105,367.969 68.945 C 367.754 68.813,367.578 67.846,367.578 66.797 C 367.578 65.748,367.402 64.781,367.188 64.648 C 366.973 64.516,366.797 63.714,366.797 62.868 C 366.797 62.021,366.621 61.328,366.406 61.328 C 366.191 61.328,366.016 60.801,366.016 60.156 C 366.016 59.512,365.840 58.984,365.625 58.984 C 365.410 58.984,365.234 58.555,365.234 58.031 C 365.234 57.506,365.059 56.969,364.844 56.836 C 364.629 56.703,364.453 56.253,364.453 55.836 C 364.453 55.419,364.277 55.078,364.063 55.078 C 363.848 55.078,363.672 54.727,363.672 54.297 C 363.672 53.867,363.496 53.516,363.281 53.516 C 363.066 53.516,362.891 53.278,362.891 52.988 C 362.891 52.697,362.363 51.908,361.719 51.233 C 361.074 50.559,360.547 49.821,360.547 49.594 C 360.547 49.021,351.618 40.234,351.036 40.234 C 350.776 40.234,350.310 39.883,350.000 39.453 C 349.690 39.023,349.124 38.672,348.742 38.672 C 348.360 38.672,348.047 38.496,348.047 38.281 C 348.047 38.066,347.695 37.891,347.266 37.891 C 346.836 37.891,346.484 37.715,346.484 37.500 C 346.484 37.285,346.133 37.109,345.703 37.109 C 345.273 37.109,344.922 36.934,344.922 36.719 C 344.922 36.504,344.570 36.328,344.141 36.328 C 343.711 36.328,343.359 36.152,343.359 35.938 C 343.359 35.723,342.884 35.547,342.303 35.547 C 341.511 35.547,342.094 35.973,344.630 37.245 M32.615 200.586 C 32.615 272.344,32.660 301.641,32.715 265.691 C 32.770 229.741,32.770 171.030,32.715 135.222 C 32.660 99.414,32.615 128.828,32.615 200.586 M33.242 334.059 C 33.221 334.852,33.379 335.609,33.594 335.742 C 34.046 336.021,34.046 335.005,33.594 333.594 C 33.313 332.717,33.277 332.764,33.242 334.059 M34.012 337.598 C 33.997 338.188,34.160 338.672,34.375 338.672 C 34.833 338.672,34.833 338.372,34.375 337.305 C 34.078 336.612,34.036 336.646,34.012 337.598 " stroke="none" fill="#fcf8e9" fill-rule="evenodd"></path><path id="path3" d="M127.906 90.958 C 124.687 92.066,121.094 95.441,121.094 97.356 C 121.094 97.650,120.874 98.110,120.605 98.379 C 119.908 99.076,119.646 294.964,120.337 299.001 C 120.880 302.176,121.735 303.874,123.935 306.143 C 127.814 310.145,128.275 310.180,175.918 310.103 C 221.126 310.029,224.959 309.836,236.621 307.039 C 237.534 306.820,238.940 306.487,239.746 306.300 C 241.567 305.877,244.096 305.001,248.633 303.223 C 263.175 297.523,275.276 286.682,281.842 273.473 C 284.274 268.578,285.357 265.143,286.770 257.829 C 287.923 251.865,287.592 233.643,286.286 231.178 C 286.094 230.816,285.937 230.149,285.937 229.695 C 285.938 228.686,284.215 223.171,283.068 220.508 C 277.692 208.027,267.716 198.859,252.832 192.722 C 250.689 191.838,250.637 191.946,254.395 189.461 C 266.764 181.281,275.594 165.697,275.328 152.516 C 275.294 150.810,275.205 150.029,275.132 150.781 C 274.211 160.174,274.235 160.045,272.436 165.430 C 269.157 175.245,258.300 188.355,251.465 190.751 C 250.020 191.258,250.709 192.405,253.027 193.350 C 266.526 198.850,276.352 207.538,281.618 218.629 C 282.312 220.092,283.018 221.559,283.187 221.888 C 283.356 222.217,283.625 223.096,283.784 223.841 C 283.944 224.586,284.208 225.371,284.371 225.586 C 284.534 225.801,284.764 226.504,284.882 227.148 C 284.999 227.793,285.476 230.078,285.942 232.227 C 287.019 237.194,287.455 249.219,286.742 254.267 C 285.938 259.952,284.896 264.689,283.811 267.578 C 283.448 268.545,283.048 269.688,282.921 270.117 C 278.934 283.623,258.940 300.711,241.992 305.098 C 241.348 305.265,239.854 305.658,238.672 305.971 C 234.364 307.114,228.908 308.126,223.242 308.833 C 219.820 309.260,133.609 309.431,130.920 309.016 C 125.363 308.159,122.301 305.178,120.860 299.219 C 120.008 295.696,120.072 102.273,120.926 99.244 C 122.093 95.106,125.276 91.913,128.963 91.183 C 131.802 90.621,211.489 90.738,216.992 91.313 C 224.348 92.081,229.052 92.828,232.129 93.717 C 232.935 93.950,234.165 94.290,234.863 94.473 C 237.197 95.085,245.239 98.414,247.258 99.605 C 248.355 100.252,249.330 100.781,249.424 100.781 C 250.543 100.781,258.725 107.203,261.937 110.603 C 267.278 116.256,271.782 124.561,273.240 131.445 C 274.076 135.393,274.648 137.069,274.439 134.961 C 273.401 124.457,265.810 112.026,255.854 104.526 C 246.006 97.108,235.616 93.182,219.922 90.948 C 214.220 90.137,130.265 90.146,127.906 90.958 M166.296 128.366 C 166.142 128.520,166.016 139.691,166.016 153.190 L 166.016 177.734 186.889 177.734 C 207.862 177.734,211.268 177.545,214.258 176.209 C 214.688 176.017,215.654 175.639,216.406 175.368 C 225.238 172.192,229.726 164.019,229.157 152.148 C 228.493 138.304,221.743 130.639,208.594 128.797 C 205.516 128.366,166.691 127.970,166.296 128.366 M212.305 130.024 C 221.964 132.929,226.430 137.908,228.343 147.908 C 230.573 159.561,226.118 170.641,217.761 174.225 C 210.909 177.163,208.088 177.428,185.255 177.273 L 166.799 177.148 166.787 153.516 C 166.780 140.518,166.780 129.647,166.786 129.358 C 166.807 128.361,208.817 128.976,212.305 130.024 M274.867 139.258 C 275.502 146.368,275.701 147.589,275.536 143.359 C 275.449 141.104,275.207 138.643,275.000 137.891 C 274.709 136.834,274.678 137.145,274.867 139.258 M166.501 213.588 C 166.113 213.848,166.031 219.919,166.111 242.603 L 166.211 271.289 189.844 271.289 C 214.683 271.289,214.582 271.295,220.898 269.449 C 233.620 265.731,239.453 257.353,239.453 242.796 C 239.453 235.750,239.110 233.898,236.809 228.516 C 233.999 221.940,227.052 216.674,218.750 214.824 C 217.568 214.561,215.986 214.164,215.234 213.942 C 213.554 213.447,167.215 213.110,166.501 213.588 M217.578 214.991 C 232.068 218.355,239.049 227.447,239.059 242.969 C 239.070 259.083,231.879 267.146,214.648 270.341 C 211.414 270.940,167.370 271.314,167.018 270.745 C 166.713 270.251,166.455 214.534,166.757 214.233 C 167.372 213.618,214.706 214.324,217.578 214.991 " stroke="none" fill="#b4975b" fill-rule="evenodd"></path><path id="path4" d="M70.447 32.910 C 70.348 33.071,128.396 33.203,199.444 33.203 C 291.617 33.203,329.361 33.326,331.205 33.633 C 350.660 36.870,363.428 49.533,366.221 68.359 C 366.917 73.049,367.083 325.402,366.393 330.198 C 363.507 350.272,351.181 363.202,332.052 366.222 C 328.192 366.832,70.462 366.891,66.602 366.283 L 65.039 366.037 66.795 366.615 C 68.333 367.122,84.899 367.180,200.584 367.087 L 332.617 366.980 335.649 366.119 C 352.826 361.237,363.703 349.477,366.591 332.664 C 367.504 327.353,367.496 72.065,366.583 67.133 C 363.360 49.720,351.210 37.199,333.949 33.505 C 331.526 32.986,70.764 32.398,70.447 32.910 M64.844 33.859 C 63.662 34.172,62.256 34.517,61.719 34.626 C 60.615 34.850,60.255 34.996,56.445 36.755 C 53.322 38.198,51.184 39.502,51.177 39.968 C 51.174 40.144,51.655 39.947,52.246 39.530 C 55.278 37.391,62.330 34.714,67.361 33.793 C 69.486 33.403,69.759 33.288,68.555 33.289 C 67.695 33.289,66.025 33.546,64.844 33.859 M48.438 41.665 C 41.119 47.371,36.560 54.519,33.904 64.453 L 33.016 67.773 32.910 199.133 C 32.818 314.186,32.876 330.745,33.383 332.531 L 33.962 334.570 33.726 332.617 C 33.251 328.677,33.131 73.456,33.603 69.727 C 35.073 58.100,39.887 49.050,48.047 42.575 C 50.971 40.254,50.998 40.229,50.566 40.265 C 50.362 40.281,49.404 40.911,48.438 41.665 M34.031 335.547 C 34.047 336.792,35.087 339.587,35.121 338.477 C 35.134 338.047,34.891 336.992,34.582 336.133 C 34.145 334.922,34.021 334.790,34.031 335.547 M35.181 339.786 C 35.090 341.721,40.148 350.249,43.533 353.869 C 46.999 357.573,55.773 363.889,56.477 363.185 C 56.569 363.092,55.721 362.520,54.592 361.912 C 47.074 357.865,40.917 351.602,37.792 344.823 C 35.374 339.581,35.206 339.256,35.181 339.786 M57.178 363.594 C 57.498 364.110,63.591 366.110,64.201 365.898 C 64.447 365.813,63.154 365.267,61.328 364.684 C 59.502 364.101,57.764 363.525,57.465 363.402 C 57.145 363.271,57.027 363.349,57.178 363.594 " stroke="none" fill="#fbd88e" fill-rule="evenodd"></path></g></svg>