<?xml version="1.0" encoding="UTF-8"?>
<svg version="1.1" xmlns="http://www.w3.org/2000/svg" width="512" height="512">
<path d="M0 0 C3.12911933 2.85948287 6.18332002 5.78975902 9.20458984 8.76269531 C10.82059751 10.34921891 12.45602261 11.9127237 14.09765625 13.47265625 C21.4726183 20.55879388 27.78006033 28.23022296 33.890625 36.41796875 C34.30521973 36.96114746 34.71981445 37.50432617 35.14697266 38.06396484 C70.47066546 84.39218501 85.85794081 145.58941005 78.6328125 203.2578125 C70.35584459 262.69200642 41.45357123 319.54660607 -6.87353516 356.51757812 C-8.04261892 357.39690006 -9.21480036 358.27211958 -10.39013672 359.14306641 C-12.05908822 360.38067855 -13.71115053 361.63850694 -15.36328125 362.8984375 C-46.95158733 386.60261116 -85.91114353 401.17765692 -125.109375 405.41796875 C-126.04136719 405.52882813 -126.97335937 405.6396875 -127.93359375 405.75390625 C-189.13464032 411.8004716 -250.42736753 393.01619921 -298.109375 354.41796875 C-302.7163941 350.47843172 -307.10366293 346.32381397 -311.42333984 342.07324219 C-313.03934751 340.48671859 -314.67477261 338.9232138 -316.31640625 337.36328125 C-323.6913683 330.27714362 -329.99881033 322.60571454 -336.109375 314.41796875 C-336.52396973 313.87479004 -336.93856445 313.33161133 -337.36572266 312.77197266 C-373.57806839 265.27825405 -387.81578146 203.94249408 -380.59008789 145.08105469 C-375.14848745 105.53093716 -360.27235652 68.24337226 -336.109375 36.41796875 C-335.44421875 35.54011719 -334.7790625 34.66226563 -334.09375 33.7578125 C-328.80501724 26.97490524 -323.02886411 20.64860557 -317.109375 14.41796875 C-316.60245117 13.88236328 -316.09552734 13.34675781 -315.57324219 12.79492188 C-308.18173636 5.03914345 -300.4420424 -1.89631789 -291.84472656 -8.29101562 C-290.71415836 -9.13210238 -289.58823204 -9.97947639 -288.46777344 -10.83398438 C-208.24469463 -72.00711154 -93.98176673 -69.11295634 0 0 Z " fill="#003382" transform="translate(407.109375,80.58203125)"/>
<path d="M0 0 C1.22635162 0.00374634 2.45270325 0.00749268 3.71621704 0.01135254 C6.29985493 0.02474533 8.88345393 0.05247842 11.46679688 0.09375 C15.3949208 0.15594692 19.32143262 0.17569364 23.25 0.1875 C25.77085264 0.20584877 28.29168916 0.22660309 30.8125 0.25 C31.97429779 0.25849976 33.13609558 0.26699951 34.33309937 0.27575684 C50.65442062 0.55796221 65.20537264 4.09370968 77.1640625 15.72265625 C86.64137938 25.74004082 88.54460865 35.62655969 88.30859375 49.03515625 C87.85613597 59.98552616 83.22051026 68.52529983 76.0390625 76.65625 C74.382765 78.00244246 72.71785323 79.33821463 71.0390625 80.65625 C70.7090625 81.31625 70.3790625 81.97625 70.0390625 82.65625 C70.6990625 82.8625 71.3590625 83.06875 72.0390625 83.28125 C81.60788944 87.66696235 88.44451452 95.27334325 92.4140625 104.96875 C97.14232353 117.73505478 96.15777977 132.12289508 90.78515625 144.55859375 C84.73175724 156.58292038 75.29651715 164.1101367 62.765625 168.91015625 C50.52696181 172.84920343 38.88119043 173.9457542 26.08984375 173.8515625 C24.58099049 173.84782333 23.07213477 173.84498064 21.5632782 173.84298706 C17.62929348 173.83542162 13.69546101 173.81583582 9.76153564 173.7935791 C5.73232074 173.77296617 1.70308077 173.76395262 -2.32617188 173.75390625 C-10.20449625 173.73258177 -18.08269783 173.6985337 -25.9609375 173.65625 C-26.05443847 153.06343484 -26.12494497 132.47065476 -26.16818619 111.87767029 C-26.18879879 102.31567279 -26.21689449 92.7538073 -26.26269531 83.19189453 C-26.30260295 74.85632805 -26.32837978 66.52085719 -26.33729148 58.18519783 C-26.34249958 53.77275885 -26.3547133 49.36059338 -26.38385773 44.94824219 C-26.41108896 40.79170697 -26.41936701 36.63555691 -26.41336823 32.47894096 C-26.41446503 30.95680076 -26.42237312 29.43464714 -26.4377594 27.9125843 C-26.52508893 18.82481147 -26.52435438 11.61989217 -20.05722046 4.58557129 C-13.48690264 0.10590313 -7.81043507 -0.16543158 0 0 Z " fill="#FCFCFD" transform="translate(191.9609375,168.34375)"/>
<path d="M0 0 C1.24265625 -0.03738281 2.4853125 -0.07476562 3.765625 -0.11328125 C12.45330986 -0.19575927 19.34941832 0.97552852 26.10717773 6.74780273 C31.0463889 12.09310063 33.11581588 18.84206765 32.85546875 26.0078125 C31.91013791 32.30309261 29.22080917 39.03695914 24.5 43.375 C16.31669554 49.07325412 6.41358854 47.82097413 -3.0625 47.625 C-4.75583826 47.60490488 -6.44919953 47.58665943 -8.14257812 47.5703125 C-12.26229372 47.52655338 -16.38088951 47.4576939 -20.5 47.375 C-20.62393636 41.78833036 -20.71449755 36.20246717 -20.7746582 30.61474609 C-20.79974604 28.71551569 -20.83382468 26.8163813 -20.87719727 24.91748047 C-20.9381033 22.18172479 -20.96626653 19.4472493 -20.98828125 16.7109375 C-21.01408768 15.86695404 -21.0398941 15.02297058 -21.06648254 14.15341187 C-21.06848192 9.91606723 -20.81194098 7.2131652 -18.09448242 3.85400391 C-12.8766705 -1.13156702 -6.90834555 0.07691478 0 0 Z " fill="#023583" transform="translate(220.5,264.625)"/>
<path d="M0 0 C1.05123047 -0.02449219 2.10246094 -0.04898438 3.18554688 -0.07421875 C11.04827181 -0.10357553 17.39855813 1.04012618 23.50390625 6.2421875 C28.10274536 12.97666985 28.40363284 19.39844269 27.3125 27.375 C25.63298149 33.34662136 22.35307883 36.90960205 17.3125 40.375 C13.59253858 41.71761765 9.83827294 41.48819751 5.921875 41.47265625 C5.21726135 41.4712413 4.51264771 41.46982635 3.78668213 41.46836853 C1.54524416 41.46278933 -0.69609243 41.45024073 -2.9375 41.4375 C-4.46093605 41.43248231 -5.98437368 41.42791987 -7.5078125 41.42382812 C-11.23440772 41.41282674 -14.96094396 41.39557646 -18.6875 41.375 C-18.76185222 36.62446489 -18.81619691 31.87427113 -18.85229492 27.12329102 C-18.86734876 25.50832211 -18.88779648 23.89339387 -18.91381836 22.27856445 C-18.95035286 19.95253445 -18.96726015 17.62704659 -18.98046875 15.30078125 C-18.99595261 14.58287918 -19.01143646 13.86497711 -19.02738953 13.12532043 C-19.02886628 8.69148618 -18.5079735 5.84362968 -15.6875 2.375 C-11.09090327 -0.8257367 -5.37272792 0.00646927 0 0 Z " fill="#023483" transform="translate(218.6875,196.625)"/>
<path d="M0 0 C6.15092313 2.76139709 10.29958095 7.25981014 13.08984375 13.34765625 C14.75045899 21.31860941 13.07073731 26.61996725 8.71484375 33.34765625 C5.016024 37.51124916 0.58388397 40.02608988 -4.96875 40.6484375 C-12.09676164 40.67876946 -16.31509995 39.82270316 -21.91015625 35.16015625 C-26.69621501 29.49245509 -29.0696418 24.33084902 -28.734375 16.8046875 C-27.47065866 9.89270858 -22.77650449 5.32012093 -17.28515625 1.34765625 C-12.0592956 -1.77685833 -5.76900808 -1.64687923 0 0 Z " fill="#FBFCFD" transform="translate(332.28515625,302.65234375)"/>
</svg>
